<svg xmlns="http://www.w3.org/2000/svg" width="410" height="404" viewBox="0 0 410 404" fill="none">
  <g clip-path="url(#clip0_17_24)">
    <path d="M399.641 59.5247L215.643 388.545C211.844 395.512 201.464 395.601 197.558 388.706L9.22632 59.6111C5.77798 53.6006 10.2306 46.0543 17.2026 46.1328L204.439 48.2934C205.932 48.3101 207.39 47.9192 208.656 47.1708L390.796 40.868C397.696 40.5896 402.253 48.7584 398.846 55.0902C398.412 55.8657 398.016 56.6326 397.658 57.3909L399.641 59.5247Z" fill="#41D1FF" />
    <path d="M292.965 1.5744L156.801 28.2557C154.563 28.6983 152.694 30.1425 151.82 32.2266L70.7531 231.277C69.0223 235.513 72.7035 239.993 77.2183 239.23L131.39 229.945C136.379 229.088 140.983 233.466 140.018 238.484L124.821 317.632C123.737 323.251 129.097 327.728 134.329 325.777L175.218 310.347C180.383 308.421 185.864 312.826 184.72 318.19L167.154 399.171C165.682 406.177 174.61 410.094 178.727 404.531L182.264 399.704L349.781 63.3979C352.656 57.6113 348.047 51.0133 341.641 52.1981L286.129 62.3174C281.063 63.238 276.794 58.7307 278.212 53.8284L306.398 2.94262C308.428 -1.1433 305.086 -5.76364 300.58 -4.83899L292.965 1.5744Z" fill="#BD34FE" />
  </g>
  <defs>
    <clipPath id="clip0_17_24">
      <rect width="410" height="404" fill="white" />
    </clipPath>
  </defs>
</svg>
