<svg xmlns="http://www.w3.org/2000/svg" viewBox="0 0 841.9 595.3">
  <g fill="#61dafb">
    <path d="M666.3 296.5c0 32.5-40.7 63.3-103.1 82.4 14.4 63.6 8 114.2-20.2 130.4-6.5 3.8-14.1 5.6-22.4 5.6v-23.5c4.1 0 7.5-.7 10.3-2.3 13.6-7.8 19.5-37.5 14.9-75.7-1.1-9.4-2.9-19.3-5.1-29.4-19.6 4.8-40.5 8.5-62.3 10.9-13.5 18.5-27.5 35.3-41.6 50.1-32.6 34.9-63.2 53.9-84 53.9-8.6 0-16-2.6-22.1-7.8-16.9-14.4-22.4-54.7-13.9-107.1 1.4-9.4 3.2-19.1 5.4-29.1-22-2.4-43-5.9-62.7-10.6-2.3 9.9-4.1 19.6-5.4 29-4.7 38.2 1.1 67.9 14.6 75.8 2.8 1.7 6.3 2.2 10.4 2.2v23.5c-8.4 0-16-1.8-22.6-5.7-28.1-16.2-34.4-66.7-19.9-130.1-62.2-19.2-102.7-49.9-102.7-82.3 0-32.5 40.7-63.3 103.1-82.4-14.4-63.6-8-114.2 20.2-130.4 6.5-3.8 14.1-5.6 22.5-5.6 20.7 0 51.4 19 84 53.9 14 14.8 28 31.6 41.3 50-21.8 2.4-42.8 6.1-62.4 10.9 2.3 10 4.1 19.7 5.4 29.1 8.5 52.4 3 92.7-13.9 107.1-6 5.1-13.4 7.7-21.9 7.7-20.8 0-51.5-19-84.1-53.9-14-14.7-28-31.5-41.2-49.9 19.6-4.8 40.5-8.5 62.3-10.9-2.2-10-4-19.7-5.1-29.1-4.6-38.2 1.3-67.9 14.9-75.7 2.8-1.6 6.2-2.3 10.3-2.3s7.5.7 10.4 2.3c13.6 7.8 19.5 37.5 14.9 75.7-1.1 9.4-2.9 19.3-5.1 29.4 19.6-4.8 40.6-8.5 62.4-10.9 13.5-18.5 27.5-35.3 41.6-50.1 32.6-34.9 63.2-53.9 84-53.9 8.4 0 16 1.9 22.5 5.8 28.1 16.2 34.4 66.7 19.9 130.1 62.2 19.1 102.7 49.9 102.7 82.3zM421 338.4c34.5 0 62.5-28 62.5-62.5s-28-62.5-62.5-62.5-62.5 28-62.5 62.5 28 62.5 62.5 62.5z" />
  </g>
</svg>
